<svg width="2048" height="2048" viewBox="0 0 2048 2048" fill="none" xmlns="http://www.w3.org/2000/svg">
<rect width="2048" height="2048" fill="#1E1E1E"/>
<rect width="2048" height="2048" rx="350" fill="black"/>
<path d="M872.8 1355.8C873 1357.8 872.8 1359.7 872.2 1361.5C871.8 1362.7 871.2 1363.7 870.4 1364.5C869.8 1365.3 869 1366.1 868 1366.9C866.2 1368.1 864 1369.2 861.4 1370.2C859.8 1370.6 858.2 1370.9 856.6 1371.1C855.2 1371.5 853.7 1371.5 852.1 1371.1C848.9 1370.9 846.1 1369.7 843.7 1367.5C840.3 1364.7 837.5 1361.6 835.3 1358.2C834.3 1356.6 833.2 1354.8 832 1352.8C830.8 1350.8 829.7 1348.7 828.7 1346.5L795.4 1283.2C793.8 1283.2 792.2 1283.3 790.6 1283.5C789 1283.5 787.4 1283.6 785.8 1283.8C781.6 1284.2 777.6 1284.3 773.8 1284.1C770.2 1283.9 766.4 1283.9 762.4 1284.1H756.7V1338.4C756.7 1340 756.6 1341.5 756.4 1342.9C756.4 1344.3 756.4 1345.8 756.4 1347.4C756.4 1348.4 756.3 1349.7 756.1 1351.3C756.1 1352.9 756 1354.4 755.8 1355.8C755.4 1358 754.5 1360.3 753.1 1362.7C751.7 1364.9 749.8 1366.8 747.4 1368.4C743.2 1371 738.1 1371.7 732.1 1370.5C729.5 1369.9 727 1368.9 724.6 1367.5C723.8 1366.9 723.1 1366.2 722.5 1365.4C721.9 1364.4 721.4 1363.4 721 1362.4C720.6 1361.4 720.2 1360.4 719.8 1359.4C719.6 1358.2 719.3 1357.1 718.9 1356.1C718.3 1354.1 718 1352.2 718 1350.4V1180C718 1178.8 718 1177.6 718 1176.4C718.2 1175 718.4 1173.8 718.6 1172.8C718.8 1170.6 719.5 1168.4 720.7 1166.2C721.3 1163.8 722.3 1162.1 723.7 1161.1C724.9 1159.9 726.7 1158.9 729.1 1158.1C731.7 1157.1 735.4 1156.7 740.2 1156.9C749.2 1157.1 758.1 1157.2 766.9 1157.2C775.7 1157.2 784.5 1157.4 793.3 1157.8C799.1 1158.2 805.2 1158.9 811.6 1159.9C818.2 1160.7 824.3 1162.2 829.9 1164.4C833.5 1165.8 836.8 1167.2 839.8 1168.6C843.6 1170.8 846.6 1172.9 848.8 1174.9C855.8 1181.3 861.1 1189 864.7 1198C868.3 1207 870.1 1216.1 870.1 1225.3C870.1 1236.1 867.5 1246 862.3 1255C857.3 1264 849.2 1270.7 838 1275.1C837.6 1275.5 837 1275.8 836.2 1276C835.6 1276 835.1 1276.1 834.7 1276.3L862.3 1331.8L865 1336.6C865.4 1337.4 865.9 1338.3 866.5 1339.3C867.1 1340.3 867.6 1341.3 868 1342.3C868.6 1343.3 869.1 1344.4 869.5 1345.6C870.1 1346.8 870.7 1347.9 871.3 1348.9C871.9 1351.7 872.4 1354 872.8 1355.8ZM797.8 1249C801.4 1249 804.8 1248.4 808 1247.2C811.4 1245.8 814.4 1244 817 1241.8C819.8 1239.6 822.1 1237.1 823.9 1234.3C825.7 1231.3 826.7 1228.1 826.9 1224.7C827.7 1214.7 825.1 1207.3 819.1 1202.5C813.1 1197.5 805.2 1194.8 795.4 1194.4C789.6 1194 783.2 1193.8 776.2 1193.8C769.4 1193.8 762.9 1193.8 756.7 1193.8C756.9 1202 756.9 1210.4 756.7 1219C756.7 1227.4 756.7 1237.4 756.7 1249H797.8ZM934.804 1255.3C934.804 1260.9 934.804 1267.2 934.804 1274.2C935.004 1281.2 935.104 1288.5 935.104 1296.1C935.104 1303.5 935.104 1310.9 935.104 1318.3C935.104 1325.5 935.004 1332.2 934.804 1338.4C934.604 1341.4 934.304 1344.7 933.904 1348.3C933.504 1351.7 932.704 1354.9 931.504 1357.9C930.304 1360.9 928.404 1363.4 925.804 1365.4C923.404 1367.2 920.104 1368 915.904 1367.8C909.704 1367.4 905.204 1364.7 902.404 1359.7C899.804 1354.7 898.304 1347.7 897.904 1338.7C897.904 1334.1 897.804 1328.8 897.604 1322.8C897.604 1316.8 897.504 1310.7 897.304 1304.5C897.304 1298.3 897.304 1292.3 897.304 1286.5C897.304 1280.5 897.304 1275.1 897.304 1270.3C897.304 1267.5 897.204 1264.1 897.004 1260.1C897.004 1256.1 897.104 1252 897.304 1247.8C897.504 1243.6 898.004 1239.6 898.804 1235.8C899.604 1231.8 900.904 1228.5 902.704 1225.9C904.104 1224.3 906.104 1223.1 908.704 1222.3C911.304 1221.3 914.004 1220.8 916.804 1220.8C919.804 1220.8 922.604 1221.3 925.204 1222.3C928.004 1223.3 930.004 1224.7 931.204 1226.5C932.004 1227.7 932.604 1229.4 933.004 1231.6C933.404 1233.8 933.704 1236.3 933.904 1239.1C934.304 1241.7 934.504 1244.5 934.504 1247.5C934.704 1250.3 934.804 1252.9 934.804 1255.3ZM923.404 1194.7C917.204 1196.3 912.004 1195.7 907.804 1192.9C903.804 1189.9 901.304 1185.5 900.304 1179.7C899.504 1175.5 899.804 1171.8 901.204 1168.6C902.604 1165.4 904.704 1163 907.504 1161.4C910.304 1159.6 913.504 1158.8 917.104 1159C920.704 1159.2 924.304 1160.6 927.904 1163.2C931.304 1165.6 933.704 1168.4 935.104 1171.6C936.704 1174.8 937.204 1177.9 936.604 1180.9C936.204 1183.9 934.904 1186.7 932.704 1189.3C930.504 1191.7 927.404 1193.5 923.404 1194.7ZM1047.26 1242.1C1050.66 1243.1 1052.86 1245 1053.86 1247.8C1054.86 1250.4 1055.16 1253.2 1054.76 1256.2C1053.56 1262.4 1050.16 1266.2 1044.56 1267.6C1041.36 1268.4 1038.06 1268.8 1034.66 1268.8C1031.46 1268.8 1028.16 1268.9 1024.76 1269.1V1338.4C1024.76 1343.2 1024.46 1348.1 1023.86 1353.1C1023.86 1354.9 1023.36 1356.8 1022.36 1358.8C1021.96 1359.8 1021.66 1360.4 1021.46 1360.6C1021.46 1361 1021.26 1361.6 1020.86 1362.4C1019.66 1364.6 1018.06 1366.4 1016.06 1367.8C1011.66 1370.2 1006.96 1370.8 1001.96 1369.6C998.964 1369 996.664 1368 995.064 1366.6C993.264 1365.2 991.964 1363.5 991.164 1361.5C990.764 1360.5 990.464 1359.5 990.264 1358.5C990.064 1357.5 989.764 1356.5 989.364 1355.5C989.164 1354.5 988.964 1353.6 988.764 1352.8C988.764 1351.8 988.764 1351 988.764 1350.4V1333C988.764 1322.6 988.764 1311.8 988.764 1300.6C988.964 1289.4 989.064 1278.6 989.064 1268.2C984.464 1268 979.664 1267.9 974.664 1267.9C969.864 1267.7 966.364 1266.5 964.164 1264.3C962.964 1263.1 962.164 1261.6 961.764 1259.8C961.364 1257.8 961.164 1255.8 961.164 1253.8C961.364 1251.8 961.764 1250 962.364 1248.4C962.964 1246.6 963.764 1245.3 964.764 1244.5C967.364 1242.1 969.664 1240.8 971.664 1240.6C973.864 1240.2 976.564 1239.9 979.764 1239.7C980.164 1239.7 981.464 1239.7 983.664 1239.7C986.064 1239.5 987.564 1239.4 988.164 1239.4C988.364 1232.6 988.564 1225.8 988.764 1219C988.964 1212.2 989.564 1206 990.564 1200.4C991.764 1194.6 993.464 1189.6 995.664 1185.4C998.064 1181 1001.66 1177.7 1006.46 1175.5C1012.26 1172.9 1018.86 1171.3 1026.26 1170.7C1033.66 1170.1 1040.36 1171 1046.36 1173.4C1049.16 1174.4 1051.86 1176.4 1054.46 1179.4C1057.26 1182.4 1058.56 1185.7 1058.36 1189.3C1058.16 1192.9 1057.46 1196.2 1056.26 1199.2C1055.06 1202.2 1052.46 1204.2 1048.46 1205.2C1046.66 1205.6 1044.76 1205.8 1042.76 1205.8C1040.96 1205.6 1039.06 1205.5 1037.06 1205.5C1035.06 1205.5 1033.16 1205.8 1031.36 1206.4C1029.76 1206.8 1028.36 1207.7 1027.16 1209.1C1026.16 1210.3 1025.46 1211.9 1025.06 1213.9C1024.86 1215.9 1024.66 1218 1024.46 1220.2C1024.26 1222.4 1024.16 1224.6 1024.16 1226.8C1024.36 1228.8 1024.46 1230.5 1024.46 1231.9V1239.4C1029.06 1239.8 1033.26 1240.1 1037.06 1240.3C1041.06 1240.5 1044.46 1241.1 1047.26 1242.1ZM1158.89 1242.1C1162.29 1243.1 1164.49 1245 1165.49 1247.8C1166.49 1250.4 1166.79 1253.2 1166.39 1256.2C1165.19 1262.4 1161.79 1266.2 1156.19 1267.6C1152.99 1268.4 1149.69 1268.8 1146.29 1268.8C1143.09 1268.8 1139.79 1268.9 1136.39 1269.1V1338.4C1136.39 1343.2 1136.09 1348.1 1135.49 1353.1C1135.49 1354.9 1134.99 1356.8 1133.99 1358.8C1133.59 1359.8 1133.29 1360.4 1133.09 1360.6C1133.09 1361 1132.89 1361.6 1132.49 1362.4C1131.29 1364.6 1129.69 1366.4 1127.69 1367.8C1123.29 1370.2 1118.59 1370.8 1113.59 1369.6C1110.59 1369 1108.29 1368 1106.69 1366.6C1104.89 1365.2 1103.59 1363.5 1102.79 1361.5C1102.39 1360.5 1102.09 1359.5 1101.89 1358.5C1101.69 1357.5 1101.39 1356.5 1100.99 1355.5C1100.79 1354.5 1100.59 1353.6 1100.39 1352.8C1100.39 1351.8 1100.39 1351 1100.39 1350.4V1333C1100.39 1322.6 1100.39 1311.8 1100.39 1300.6C1100.59 1289.4 1100.69 1278.6 1100.69 1268.2C1096.09 1268 1091.29 1267.9 1086.29 1267.9C1081.49 1267.7 1077.99 1266.5 1075.79 1264.3C1074.59 1263.1 1073.79 1261.6 1073.39 1259.8C1072.99 1257.8 1072.79 1255.8 1072.79 1253.8C1072.99 1251.8 1073.39 1250 1073.99 1248.4C1074.59 1246.6 1075.39 1245.3 1076.39 1244.5C1078.99 1242.1 1081.29 1240.8 1083.29 1240.6C1085.49 1240.2 1088.19 1239.9 1091.39 1239.7C1091.79 1239.7 1093.09 1239.7 1095.29 1239.7C1097.69 1239.5 1099.19 1239.4 1099.79 1239.4C1099.99 1232.6 1100.19 1225.8 1100.39 1219C1100.59 1212.2 1101.19 1206 1102.19 1200.4C1103.39 1194.6 1105.09 1189.6 1107.29 1185.4C1109.69 1181 1113.29 1177.7 1118.09 1175.5C1123.89 1172.9 1130.49 1171.3 1137.89 1170.7C1145.29 1170.1 1151.99 1171 1157.99 1173.4C1160.79 1174.4 1163.49 1176.4 1166.09 1179.4C1168.89 1182.4 1170.19 1185.7 1169.99 1189.3C1169.79 1192.9 1169.09 1196.2 1167.89 1199.2C1166.69 1202.2 1164.09 1204.2 1160.09 1205.2C1158.29 1205.6 1156.39 1205.8 1154.39 1205.8C1152.59 1205.6 1150.69 1205.5 1148.69 1205.5C1146.69 1205.5 1144.79 1205.8 1142.99 1206.4C1141.39 1206.8 1139.99 1207.7 1138.79 1209.1C1137.79 1210.3 1137.09 1211.9 1136.69 1213.9C1136.49 1215.9 1136.29 1218 1136.09 1220.2C1135.89 1222.4 1135.79 1224.6 1135.79 1226.8C1135.99 1228.8 1136.09 1230.5 1136.09 1231.9V1239.4C1140.69 1239.8 1144.89 1240.1 1148.69 1240.3C1152.69 1240.5 1156.09 1241.1 1158.89 1242.1ZM1332.07 1235.2C1333.87 1238 1334.67 1241 1334.47 1244.2C1334.47 1248.8 1333.67 1252.8 1332.07 1256.2C1331.67 1257.2 1331.07 1258.5 1330.27 1260.1C1329.67 1261.7 1328.97 1263.4 1328.17 1265.2C1327.57 1267 1326.87 1268.7 1326.07 1270.3C1325.27 1271.9 1324.67 1273.1 1324.27 1273.9L1323.67 1275.4C1320.87 1281.6 1318.17 1287.6 1315.57 1293.4C1312.97 1299.2 1310.07 1305.4 1306.87 1312C1303.67 1318.4 1300.57 1324.7 1297.57 1330.9C1294.77 1336.9 1291.97 1342.8 1289.17 1348.6C1288.37 1350.2 1287.67 1351.8 1287.07 1353.4C1286.47 1354.8 1285.67 1356.3 1284.67 1357.9L1270.27 1388.8C1267.67 1394 1265.17 1399.1 1262.77 1404.1C1260.57 1409.1 1258.07 1414.1 1255.27 1419.1C1254.67 1420.1 1254.07 1421 1253.47 1421.8C1253.07 1422.8 1252.67 1423.8 1252.27 1424.8C1250.87 1427.2 1248.77 1429.5 1245.97 1431.7C1243.37 1434.1 1240.57 1435.4 1237.57 1435.6C1232.17 1436 1227.47 1434.4 1223.47 1430.8C1221.07 1429.4 1219.17 1427.4 1217.77 1424.8C1216.97 1423 1216.57 1420.7 1216.57 1417.9C1216.77 1416.7 1216.87 1415.5 1216.87 1414.3C1217.07 1413.3 1217.27 1412.3 1217.47 1411.3C1217.87 1410.3 1218.17 1409.3 1218.37 1408.3C1218.57 1407.3 1218.87 1406.5 1219.27 1405.9C1219.87 1404.3 1220.37 1403.5 1220.77 1403.5L1242.67 1356.1C1241.67 1353.9 1240.67 1351.7 1239.67 1349.5C1238.67 1347.1 1237.77 1345 1236.97 1343.2C1234.37 1337 1231.57 1330.5 1228.57 1323.7C1225.77 1316.7 1222.87 1309.8 1219.87 1303C1216.87 1296 1213.77 1289.2 1210.57 1282.6C1207.37 1276 1204.17 1269.7 1200.97 1263.7C1199.77 1261.7 1198.67 1259.6 1197.67 1257.4C1196.67 1255 1195.87 1252.7 1195.27 1250.5C1194.67 1248.1 1194.47 1245.7 1194.67 1243.3C1194.87 1240.9 1195.77 1238.5 1197.37 1236.1C1198.97 1233.1 1201.07 1231 1203.67 1229.8C1206.27 1228.4 1208.97 1227.8 1211.77 1228C1214.77 1228 1217.57 1228.6 1220.17 1229.8C1222.77 1231 1224.87 1232.6 1226.47 1234.6C1229.87 1238.2 1232.57 1242.2 1234.57 1246.6C1236.57 1251 1238.47 1255.5 1240.27 1260.1C1244.07 1268.1 1247.97 1276.5 1251.97 1285.3C1255.97 1294.1 1259.97 1302.7 1263.97 1311.1L1279.57 1278.1C1281.17 1274.9 1282.57 1271.8 1283.77 1268.8C1285.17 1265.8 1286.57 1262.9 1287.97 1260.1C1289.57 1256.7 1291.07 1253.2 1292.47 1249.6C1294.07 1246 1295.87 1242.7 1297.87 1239.7C1298.27 1238.9 1298.67 1238.2 1299.07 1237.6C1299.47 1237 1299.87 1236.3 1300.27 1235.5C1302.07 1233.1 1303.67 1231.2 1305.07 1229.8C1306.07 1229 1306.87 1228.4 1307.47 1228C1308.27 1227.4 1309.17 1227 1310.17 1226.8C1311.57 1226.4 1312.87 1226.2 1314.07 1226.2C1315.47 1226 1316.77 1226 1317.97 1226.2C1319.97 1226.8 1322.37 1227.7 1325.17 1228.9C1328.17 1230.1 1330.47 1232.2 1332.07 1235.2Z" fill="white"/>
<path d="M565 731.377C566.356 720.955 683.114 727.224 694.466 727.224C744.949 727.224 777.132 740.365 797.51 786.29C828.826 856.864 822.648 954.205 896.23 1001.33C943.578 1031.65 997.732 1031.47 1043.95 1001.33C1078.5 978.788 1099.47 944.926 1123.7 913.188C1162.09 862.892 1202.88 814.757 1249.8 771.523C1315.89 710.629 1388.37 705.332 1476.3 699.076C1515.65 696.276 1554.58 694 1594 694" stroke="url(#paint0_linear_0_1)" stroke-width="50" stroke-linecap="round"/>
<path d="M85.9096 151.803C85.8836 151.733 85.4796 151.762 85.3837 151.741C85.2456 151.71 85.1408 151.704 85.0965 151.549C85.0855 151.51 85.0123 151.489 85.008 151.412C85.0056 151.369 84.9878 151.242 85.0147 151.208C85.0859 151.119 85.2327 151.172 85.3687 151.172C85.8786 151.172 86.4523 151.172 86.9615 151.172C87.5095 151.172 88.0673 151.202 88.6144 151.172C88.8749 151.157 89.1746 151.115 89.4275 151.036C89.7143 150.947 90.0773 151.051 90.3574 151.051" stroke="black" stroke-width="2" stroke-linecap="round"/>
<path d="M85.9096 604.803C85.8836 604.733 85.4796 604.762 85.3837 604.741C85.2456 604.71 85.1408 604.704 85.0965 604.549C85.0855 604.51 85.0123 604.489 85.008 604.412C85.0056 604.369 84.9878 604.242 85.0147 604.208C85.0859 604.119 85.2327 604.172 85.3687 604.172C85.8786 604.172 86.4523 604.172 86.9615 604.172C87.5095 604.172 88.0673 604.202 88.6144 604.172C88.8749 604.157 89.1746 604.115 89.4275 604.036C89.7143 603.947 90.0773 604.051 90.3574 604.051" stroke="black" stroke-width="2" stroke-linecap="round"/>
<defs>
<linearGradient id="paint0_linear_0_1" x1="565" y1="859" x2="1594" y2="859" gradientUnits="userSpaceOnUse">
<stop stop-color="#FFD700"/>
<stop offset="1" stop-color="#FF6F61"/>
</linearGradient>
</defs>
</svg>
